# xmcd CD database file
#
# Track frame offsets:
#	195
#	11800
#	36062
#	51747
#	66865
#	79265
#	99015
#	112567
#	126925
#	137130
#	150320
#
# Disc length: 2164 seconds
#
# Revision: 1
# Processed by: cddbd v1.5.1PL0 Copyright (c) Steve Scherf et al.
# Submitted via: CDex 1.40Release
#
DISCID=8708720b
DTITLE=Tony Rice - Cold on the Shoulder
DYEAR=1983
DGENRE=Bluegrass
TTITLE0=Cold on the Shoulder
TTITLE1=Wayfaring Stranger
TTITLE2=John Hardy
TTITLE3=Fare Thee Well
TTITLE4=Bitter Green
TTITLE5=Muleskinner Blues
TTITLE6=Song for Life
TTITLE7=Why Don't You Tell Me So
TTITLE8=If You Only Knew
TTITLE9=Likes of Me
TTITLE10=I Think It's Gonna Rain Today
EXTD=YEAR: 1983 ID3G: 89
EXTT0=
EXTT1=
EXTT2=
EXTT3=
EXTT4=
EXTT5=
EXTT6=
EXTT7=
EXTT8=
EXTT9=
EXTT10=
PLAYORDER=
